<svg width="41" height="41" viewBox="0 0 41 41" fill="none" xmlns="http://www.w3.org/2000/svg">
<g clip-path="url(#clip0_919_12743)">
<path d="M20.1719 1.08593C19.7891 1.21875 19.4453 1.54687 19.2578 1.94531C19.1328 2.21875 19.1094 2.47656 19.1094 4.14843V6.04687L18.9375 6.08593C18.8359 6.10156 18.4453 6.17187 18.0547 6.23437C15.2109 6.70312 12.3281 8.21875 10.1641 10.3828C8 12.5469 6.48438 15.4297 6.01562 18.2734C5.95312 18.6562 5.88281 19.0547 5.86719 19.1484L5.82812 19.3281H3.92969C1.80469 19.3281 1.63281 19.3672 1.16406 19.8984C0.625 20.5156 0.625 21.4219 1.16406 22.0391C1.63281 22.5703 1.80469 22.6094 3.92969 22.6094H5.82812L5.86719 22.7812C5.88281 22.8828 5.95312 23.2734 6.01562 23.6641C6.48438 26.5078 8 29.3906 10.1641 31.5547C12.3281 33.7187 15.2109 35.2344 18.0547 35.7031C18.4453 35.7656 18.8359 35.8359 18.9375 35.8516L19.1094 35.8906V37.7891C19.1094 39.9141 19.1484 40.0859 19.6797 40.5547C20.2969 41.0938 21.2031 41.0938 21.8203 40.5547C22.3516 40.0859 22.3906 39.9141 22.3906 37.7891V35.8906L22.5703 35.8516C22.6641 35.8359 23.0625 35.7656 23.4453 35.7031C26.2891 35.2344 29.1719 33.7187 31.3359 31.5547C33.5 29.3906 35.0156 26.5078 35.4844 23.6641C35.5469 23.2734 35.6172 22.8828 35.6328 22.7812L35.6719 22.6094H37.5703C39.6953 22.6094 39.8672 22.5703 40.3359 22.0391C40.875 21.4219 40.875 20.5156 40.3359 19.8984C39.8672 19.3672 39.6953 19.3281 37.5703 19.3281H35.6719L35.6328 19.1484C35.6172 19.0547 35.5469 18.6562 35.4844 18.2734C35.0156 15.4297 33.5 12.5469 31.3359 10.3828C29.1719 8.21875 26.2891 6.70312 23.4453 6.23437C23.0625 6.17187 22.6641 6.10156 22.5703 6.08593L22.3906 6.04687V4.14843C22.3906 2.02343 22.3516 1.85156 21.8203 1.38281C21.3672 0.984371 20.7656 0.874996 20.1719 1.08593ZM22.4688 9.4375C25.2812 9.89843 27.5703 11.1562 29.4844 13.2734C32 16.0625 32.9922 20.1484 32.0391 23.8594C31 27.9297 27.7109 31.2187 23.6406 32.2578C21.8047 32.7266 19.6953 32.7266 17.8594 32.2578C13.7891 31.2187 10.5 27.9297 9.46094 23.8594C8.99219 22.0234 8.99219 19.9141 9.46094 18.0781C10.5 14.0078 13.7812 10.7266 17.8594 9.67968C19.2188 9.32812 21.1719 9.22656 22.4688 9.4375Z" fill="#4F5052"/>
<path d="M20.007 15.1958C17.8586 15.4536 15.9445 17.0239 15.2414 19.0942C14.0461 22.602 16.4211 26.3286 20.1008 26.7505C23.7883 27.1645 26.9445 24.0083 26.5305 20.3208C26.1633 17.0942 23.2492 14.7974 20.007 15.1958ZM21.7805 18.7192C22.3273 18.9692 22.7492 19.3911 23.007 19.9458C23.4289 20.8442 23.218 22.0083 22.507 22.727C21.5539 23.6724 19.9445 23.6724 18.9914 22.727C18.382 22.1177 18.1242 21.1333 18.3508 20.3364C18.7961 18.8208 20.3742 18.0786 21.7805 18.7192Z" fill="#4F5052"/>
</g>
<defs>
<clipPath id="clip0_919_12743">
<rect width="40" height="40" fill="white" transform="translate(0.75 0.96875)"/>
</clipPath>
</defs>
</svg>
